<?xml version="1.0" encoding="UTF-8"?>
<!DOCTYPE svg PUBLIC "-//W3C//DTD SVG 1.1//EN" "http://www.w3.org/Graphics/SVG/1.1/DTD/svg11.dtd">
<svg xmlns="http://www.w3.org/2000/svg" version="1.1" width="1024px" height="1024px" style="shape-rendering:geometricPrecision; text-rendering:geometricPrecision; image-rendering:optimizeQuality; fill-rule:evenodd; clip-rule:evenodd" xmlns:xlink="http://www.w3.org/1999/xlink">
<g><path style="opacity:0.277" fill="#f2ebe5" d="M 235.5,510.5 C 225.816,497.638 215.149,485.471 203.5,474C 196.453,469.482 189.453,464.982 182.5,460.5C 175.884,457.377 168.884,455.043 161.5,453.5C 153.807,452.898 146.474,453.898 139.5,456.5C 135.164,456.837 131.497,458.504 128.5,461.5C 126.833,462.167 125.167,462.833 123.5,463.5C 125.163,461.467 127.163,459.634 129.5,458C 145.516,450.116 161.849,449.449 178.5,456C 202.854,468.52 221.854,486.686 235.5,510.5 Z"/></g>
<g><path style="opacity:0.998" fill="#834b1e" d="M 161.5,453.5 C 168.884,455.043 175.884,457.377 182.5,460.5C 181.448,460.351 180.448,460.517 179.5,461C 195.301,475.133 210.801,489.633 226,504.5C 233.333,514.5 240.667,524.5 248,534.5C 249.113,535.305 250.279,535.972 251.5,536.5C 253.167,538.5 254.833,540.5 256.5,542.5C 258.418,547.343 261.084,551.677 264.5,555.5C 267.245,561.325 270.245,566.992 273.5,572.5C 273.196,573.15 272.863,573.817 272.5,574.5C 277.667,584.833 282.833,595.167 288,605.5C 300.346,624.851 311.679,644.851 322,665.5C 322.383,664.944 322.883,664.611 323.5,664.5C 334.319,684.47 344.319,704.803 353.5,725.5C 352.721,727.927 351.554,727.927 350,725.5C 336.555,702.279 323.889,678.612 312,654.5C 303.253,638.67 294.253,623.004 285,607.5C 276.861,589.888 268.194,572.555 259,555.5C 246.051,537.55 232.718,519.883 219,502.5C 205.801,489.632 192.301,477.132 178.5,465C 168.647,459.498 158.647,459.164 148.5,464C 141.107,470.738 138.94,478.905 142,488.5C 143.888,493.945 146.555,498.945 150,503.5C 165.729,518.56 180.729,534.227 195,550.5C 205.626,575.773 219.293,599.106 236,620.5C 257.524,656.206 277.524,692.873 296,730.5C 303.617,755.733 314.951,779.066 330,800.5C 347.204,822.044 361.537,845.378 373,870.5C 378.077,890.399 384.744,909.732 393,928.5C 409.86,960.824 427.693,992.491 446.5,1023.5C 444.833,1023.5 443.167,1023.5 441.5,1023.5C 423.587,994.016 406.42,964.016 390,933.5C 380.206,907.984 370.873,882.317 362,856.5C 354.918,844.001 347.585,831.668 340,819.5C 329.213,804.707 319.213,789.373 310,773.5C 284.049,708.912 251.382,648.246 212,591.5C 205.042,577.286 197.709,563.286 190,549.5C 175.696,534.195 161.029,519.195 146,504.5C 139.673,496.154 136.173,486.988 135.5,477C 136.795,470.067 140.129,464.401 145.5,460C 150.871,457.281 156.204,455.115 161.5,453.5 Z"/></g>
<g><path style="opacity:0.999" fill="#854f23" d="M 353.5,725.5 C 362.842,744.516 372.509,763.516 382.5,782.5C 382.5,783.5 382.5,784.5 382.5,785.5C 383.5,785.5 384.5,785.5 385.5,785.5C 384.791,786.404 383.791,786.737 382.5,786.5C 383.819,795.958 386.652,804.958 391,813.5C 402.499,835.178 415.499,855.845 430,875.5C 430.671,876.252 431.504,876.586 432.5,876.5C 437.53,884.218 442.197,892.218 446.5,900.5C 450.766,913.784 455.932,926.784 462,939.5C 475.891,968.289 491.058,996.289 507.5,1023.5C 505.833,1023.5 504.167,1023.5 502.5,1023.5C 492.49,1006.64 482.657,989.644 473,972.5C 468.333,963.167 463.667,953.833 459,944.5C 451.825,925.816 443.825,907.482 435,889.5C 426.155,876.478 416.822,863.811 407,851.5C 400.933,840.369 394.6,829.369 388,818.5C 385.723,813.613 383.723,808.613 382,803.5C 379.118,786.187 373.451,769.854 365,754.5C 355.726,739.562 346.06,724.896 336,710.5C 318.526,674.211 299.526,638.878 279,604.5C 272.29,588.035 264.624,572.035 256,556.5C 244.242,540.653 232.242,524.987 220,509.5C 207.178,496.868 194.345,484.368 181.5,472C 173.65,465.947 165.317,463.947 156.5,466C 150.634,468.528 146.968,472.861 145.5,479C 146.378,481.59 146.378,483.923 145.5,486C 148.086,492.671 151.586,498.838 156,504.5C 169.961,517.496 183.294,531.162 196,545.5C 203,559.833 210,574.167 217,588.5C 233.407,609.635 248.074,631.969 261,655.5C 273.524,677.882 285.524,700.548 297,723.5C 302.825,741.643 309.825,759.31 318,776.5C 327.448,791.726 338.115,806.059 350,819.5C 357.18,829.863 363.847,840.53 370,851.5C 376.843,865.537 381.843,880.204 385,895.5C 387.881,905.478 391.548,915.145 396,924.5C 414.005,957.851 432.505,990.851 451.5,1023.5C 449.833,1023.5 448.167,1023.5 446.5,1023.5C 427.693,992.491 409.86,960.824 393,928.5C 384.744,909.732 378.077,890.399 373,870.5C 361.537,845.378 347.204,822.044 330,800.5C 314.951,779.066 303.617,755.733 296,730.5C 277.524,692.873 257.524,656.206 236,620.5C 219.293,599.106 205.626,575.773 195,550.5C 180.729,534.227 165.729,518.56 150,503.5C 146.555,498.945 143.888,493.945 142,488.5C 138.94,478.905 141.107,470.738 148.5,464C 158.647,459.164 168.647,459.498 178.5,465C 192.301,477.132 205.801,489.632 219,502.5C 232.718,519.883 246.051,537.55 259,555.5C 268.194,572.555 276.861,589.888 285,607.5C 294.253,623.004 303.253,638.67 312,654.5C 323.889,678.612 336.555,702.279 350,725.5C 351.554,727.927 352.721,727.927 353.5,725.5 Z"/></g>
<g><path style="opacity:0.995" fill="#895227" d="M 182.5,460.5 C 189.453,464.982 196.453,469.482 203.5,474C 215.149,485.471 225.816,497.638 235.5,510.5C 238.676,516.189 242.342,521.523 246.5,526.5C 247.669,529.511 249.336,532.178 251.5,534.5C 251.5,535.167 251.5,535.833 251.5,536.5C 250.279,535.972 249.113,535.305 248,534.5C 240.667,524.5 233.333,514.5 226,504.5C 210.801,489.633 195.301,475.133 179.5,461C 180.448,460.517 181.448,460.351 182.5,460.5 Z"/></g>
<g><path style="opacity:0.999" fill="#783a08" d="M 432.5,1023.5 C 429.167,1023.5 425.833,1023.5 422.5,1023.5C 411.919,1005.74 401.085,988.069 390,970.5C 381.078,953.656 372.411,936.656 364,919.5C 358.544,908.894 356.711,897.728 358.5,886C 358.012,878.94 356.512,872.107 354,865.5C 336.333,834.833 318.667,804.167 301,773.5C 277.632,719.425 250.632,667.425 220,617.5C 214.245,608.99 208.245,600.657 202,592.5C 196.667,581.833 191.333,571.167 186,560.5C 169.389,543.22 152.722,525.886 136,508.5C 124.888,496.933 119.721,483.599 120.5,468.5C 120.833,467.833 121.167,467.167 121.5,466.5C 122.167,465.5 122.833,464.5 123.5,463.5C 125.167,462.833 126.833,462.167 128.5,461.5C 129.967,460.708 131.3,460.708 132.5,461.5C 126.813,473.707 127.313,485.707 134,497.5C 136.333,500.833 138.667,504.167 141,507.5C 156.75,522.915 172.084,538.582 187,554.5C 197.638,577.122 210.305,598.455 225,618.5C 255.92,668.669 282.92,721.003 306,775.5C 324.675,804.842 342.342,834.842 359,865.5C 363.917,882.081 368.584,898.748 373,915.5C 377.842,928.851 383.508,941.851 390,954.5C 403.676,977.863 417.843,1000.86 432.5,1023.5 Z"/></g>
<g><path style="opacity:0.19" fill="#fefffe" d="M 123.5,463.5 C 122.833,464.5 122.167,465.5 121.5,466.5C 117.564,468.766 114.231,471.766 111.5,475.5C 111.167,475.5 110.833,475.5 110.5,475.5C 113.554,470.113 117.887,466.113 123.5,463.5 Z"/></g>
<g><path style="opacity:0.999" fill="#885328" d="M 502.5,1023.5 C 500.5,1023.5 498.5,1023.5 496.5,1023.5C 480.985,998.757 466.819,973.09 454,946.5C 447.357,926.896 439.357,907.896 430,889.5C 420.045,876.543 409.712,863.876 399,851.5C 391.809,839.118 385.142,826.451 379,813.5C 376.559,801.854 374.226,790.187 372,778.5C 367.98,766.796 362.647,755.796 356,745.5C 347.333,733.5 338.667,721.5 330,709.5C 314.528,676.549 297.528,644.549 279,613.5C 271.392,597.285 264.059,580.952 257,564.5C 235.044,532.876 209.877,504.043 181.5,478C 176.569,473.868 170.902,471.368 164.5,470.5C 159.341,472.018 154.674,473.852 150.5,476C 151.428,476.388 152.095,477.055 152.5,478C 151.063,483.34 151.563,488.507 154,493.5C 155.944,497.11 158.277,500.443 161,503.5C 174.646,515.48 187.312,528.48 199,542.5C 205.713,555.962 212.046,569.629 218,583.5C 224.935,594.368 232.602,604.702 241,614.5C 262.12,647.732 281.454,682.065 299,717.5C 303.257,727.261 306.424,737.095 308.5,747C 314.583,765.001 323.416,781.501 335,796.5C 343,805.167 351,813.833 359,822.5C 369.151,836.467 377.485,851.467 384,867.5C 387.034,887.308 392.701,906.308 401,924.5C 420.351,957.202 439.184,990.202 457.5,1023.5C 455.5,1023.5 453.5,1023.5 451.5,1023.5C 432.505,990.851 414.005,957.851 396,924.5C 391.548,915.145 387.881,905.478 385,895.5C 381.843,880.204 376.843,865.537 370,851.5C 363.847,840.53 357.18,829.863 350,819.5C 338.115,806.059 327.448,791.726 318,776.5C 309.825,759.31 302.825,741.643 297,723.5C 285.524,700.548 273.524,677.882 261,655.5C 248.074,631.969 233.407,609.635 217,588.5C 210,574.167 203,559.833 196,545.5C 183.294,531.162 169.961,517.496 156,504.5C 151.586,498.838 148.086,492.671 145.5,486C 146.378,483.923 146.378,481.59 145.5,479C 146.968,472.861 150.634,468.528 156.5,466C 165.317,463.947 173.65,465.947 181.5,472C 194.345,484.368 207.178,496.868 220,509.5C 232.242,524.987 244.242,540.653 256,556.5C 264.624,572.035 272.29,588.035 279,604.5C 299.526,638.878 318.526,674.211 336,710.5C 346.06,724.896 355.726,739.562 365,754.5C 373.451,769.854 379.118,786.187 382,803.5C 383.723,808.613 385.723,813.613 388,818.5C 394.6,829.369 400.933,840.369 407,851.5C 416.822,863.811 426.155,876.478 435,889.5C 443.825,907.482 451.825,925.816 459,944.5C 463.667,953.833 468.333,963.167 473,972.5C 482.657,989.644 492.49,1006.64 502.5,1023.5 Z"/></g>
<g><path style="opacity:0.999" fill="#743400" d="M 120.5,468.5 C 119.721,483.599 124.888,496.933 136,508.5C 152.722,525.886 169.389,543.22 186,560.5C 191.333,571.167 196.667,581.833 202,592.5C 208.245,600.657 214.245,608.99 220,617.5C 250.632,667.425 277.632,719.425 301,773.5C 318.667,804.167 336.333,834.833 354,865.5C 356.512,872.107 358.012,878.94 358.5,886C 356.711,897.728 358.544,908.894 364,919.5C 372.411,936.656 381.078,953.656 390,970.5C 401.085,988.069 411.919,1005.74 422.5,1023.5C 281.5,1023.5 140.5,1023.5 -0.5,1023.5C -0.5,907.167 -0.5,790.833 -0.5,674.5C 1.93536,673.73 3.26869,672.063 3.5,669.5C 3.6596,667.847 4.32627,666.514 5.5,665.5C 7.24512,663.967 8.24512,661.967 8.5,659.5C 9.78632,656.244 11.1196,652.911 12.5,649.5C 18.3009,640.231 23.3009,630.564 27.5,620.5C 29.1042,619.713 29.7709,618.38 29.5,616.5C 31.0075,614.819 32.0075,612.819 32.5,610.5C 33.9063,610.027 34.573,609.027 34.5,607.5C 34.8333,606.167 35.1667,604.833 35.5,603.5C 38.0078,599.818 40.0078,595.818 41.5,591.5C 43.1667,588.833 44.8333,586.167 46.5,583.5C 49.4032,578.023 52.0698,572.357 54.5,566.5C 57.2554,561.116 59.9221,555.783 62.5,550.5C 64.1042,549.713 64.7709,548.38 64.5,546.5C 65.3127,544.739 66.3127,543.072 67.5,541.5C 69.1042,540.713 69.7709,539.38 69.5,537.5C 73.0476,532.088 76.381,526.422 79.5,520.5C 81.2503,519.341 82.2503,517.674 82.5,515.5C 82.3284,514.508 82.6618,513.842 83.5,513.5C 85.2503,512.341 86.2503,510.674 86.5,508.5C 87.9063,508.027 88.573,507.027 88.5,505.5C 88.3284,504.508 88.6618,503.842 89.5,503.5C 90.9063,503.027 91.573,502.027 91.5,500.5C 92.9063,500.027 93.573,499.027 93.5,497.5C 94.9063,497.027 95.573,496.027 95.5,494.5C 95.7376,492.596 96.7376,491.262 98.5,490.5C 100.883,489.115 102.55,487.115 103.5,484.5C 106.167,482.5 108.5,480.167 110.5,477.5C 110.5,476.833 110.5,476.167 110.5,475.5C 110.833,475.5 111.167,475.5 111.5,475.5C 114.767,473.573 117.767,471.239 120.5,468.5 Z"/></g>
<g><path style="opacity:0.992" fill="#a17352" d="M 121.5,466.5 C 121.167,467.167 120.833,467.833 120.5,468.5C 117.767,471.239 114.767,473.573 111.5,475.5C 114.231,471.766 117.564,468.766 121.5,466.5 Z"/></g>
<g><path style="opacity:0.999" fill="#8a562c" d="M 496.5,1023.5 C 494.833,1023.5 493.167,1023.5 491.5,1023.5C 476.41,999.664 462.576,974.998 450,949.5C 444.791,932.54 438.791,915.873 432,899.5C 422.43,882.596 409.43,868.929 393,858.5C 392.586,858.957 392.086,859.291 391.5,859.5C 389.769,886.186 396.602,911.852 412,936.5C 417.723,943.891 423.056,951.557 428,959.5C 439.258,981.02 450.758,1002.35 462.5,1023.5C 460.833,1023.5 459.167,1023.5 457.5,1023.5C 439.184,990.202 420.351,957.202 401,924.5C 392.701,906.308 387.034,887.308 384,867.5C 377.485,851.467 369.151,836.467 359,822.5C 351,813.833 343,805.167 335,796.5C 323.416,781.501 314.583,765.001 308.5,747C 306.424,737.095 303.257,727.261 299,717.5C 281.454,682.065 262.12,647.732 241,614.5C 232.602,604.702 224.935,594.368 218,583.5C 212.046,569.629 205.713,555.962 199,542.5C 187.312,528.48 174.646,515.48 161,503.5C 158.277,500.443 155.944,497.11 154,493.5C 151.563,488.507 151.063,483.34 152.5,478C 152.095,477.055 151.428,476.388 150.5,476C 154.674,473.852 159.341,472.018 164.5,470.5C 170.902,471.368 176.569,473.868 181.5,478C 209.877,504.043 235.044,532.876 257,564.5C 264.059,580.952 271.392,597.285 279,613.5C 297.528,644.549 314.528,676.549 330,709.5C 338.667,721.5 347.333,733.5 356,745.5C 362.647,755.796 367.98,766.796 372,778.5C 374.226,790.187 376.559,801.854 379,813.5C 385.142,826.451 391.809,839.118 399,851.5C 409.712,863.876 420.045,876.543 430,889.5C 439.357,907.896 447.357,926.896 454,946.5C 466.819,973.09 480.985,998.757 496.5,1023.5 Z"/></g>
<g><path style="opacity:0.999" fill="#8c5930" d="M 161.5,475.5 C 166.937,474.967 171.937,476.134 176.5,479C 203.719,503.588 228.553,530.422 251,559.5C 258.809,574.235 265.476,589.568 271,605.5C 290.32,639.139 308.32,673.472 325,708.5C 332.9,720.403 341.567,731.736 351,742.5C 356.171,750.172 360.838,758.172 365,766.5C 369.184,776.384 371.351,786.55 371.5,797C 372.484,804.805 373.15,812.472 373.5,820C 373.437,822.281 372.603,824.114 371,825.5C 354.323,812.823 339.656,798.156 327,781.5C 322.198,773.563 318.198,765.23 315,756.5C 311.436,742.575 307.103,728.909 302,715.5C 285.215,681.927 266.882,649.26 247,617.5C 237.283,605.45 227.949,593.117 219,580.5C 214.284,569.692 209.951,558.692 206,547.5C 204,544.167 202,540.833 200,537.5C 186.278,523.114 172.611,508.78 159,494.5C 154.223,487.311 155.057,480.978 161.5,475.5 Z"/></g>
<g><path style="opacity:0.11" fill="#faf8f6" d="M 110.5,475.5 C 110.5,476.167 110.5,476.833 110.5,477.5C 107.167,478.833 104.833,481.167 103.5,484.5C 102.167,485.5 100.833,486.5 99.5,487.5C 101.755,482.243 105.422,478.243 110.5,475.5 Z"/></g>
<g><path style="opacity:1" fill="#a27654" d="M 110.5,477.5 C 108.5,480.167 106.167,482.5 103.5,484.5C 104.833,481.167 107.167,478.833 110.5,477.5 Z"/></g>
<g><path style="opacity:0.167" fill="#fefffe" d="M 98.5,488.5 C 98.5,489.167 98.5,489.833 98.5,490.5C 96.7376,491.262 95.7376,492.596 95.5,494.5C 94.8333,494.833 94.1667,495.167 93.5,495.5C 94.0693,492.281 95.736,489.948 98.5,488.5 Z"/></g>
<g><path style="opacity:0.635" fill="#b7967c" d="M 103.5,484.5 C 102.55,487.115 100.883,489.115 98.5,490.5C 98.5,489.833 98.5,489.167 98.5,488.5C 98.5,487.833 98.8333,487.5 99.5,487.5C 100.833,486.5 102.167,485.5 103.5,484.5 Z"/></g>
<g><path style="opacity:0.11" fill="#fcfcfb" d="M 93.5,495.5 C 93.5,496.167 93.5,496.833 93.5,497.5C 92.0937,497.973 91.427,498.973 91.5,500.5C 90.0937,500.973 89.427,501.973 89.5,503.5C 88.6618,503.842 88.3284,504.508 88.5,505.5C 87.8333,505.833 87.1667,506.167 86.5,506.5C 87.6571,502.024 89.9905,498.358 93.5,495.5 Z"/></g>
<g><path style="opacity:0.8" fill="#ab8365" d="M 95.5,494.5 C 95.573,496.027 94.9063,497.027 93.5,497.5C 93.5,496.833 93.5,496.167 93.5,495.5C 94.1667,495.167 94.8333,494.833 95.5,494.5 Z"/></g>
<g><path style="opacity:0.999" fill="#9f7755" d="M 577.5,499.5 C 581.595,498.011 585.595,498.511 589.5,501C 595.8,506.73 601.3,513.23 606,520.5C 618.159,540.818 628.159,562.151 636,584.5C 641.667,594.833 647.333,605.167 653,615.5C 655.221,620.993 656.721,626.66 657.5,632.5C 648.263,617.701 639.263,602.701 630.5,587.5C 615.241,559.969 599.241,532.969 582.5,506.5C 581.931,503.281 580.264,500.948 577.5,499.5 Z"/></g>
<g><path style="opacity:1" fill="#a98061" d="M 93.5,497.5 C 93.573,499.027 92.9063,500.027 91.5,500.5C 91.427,498.973 92.0937,497.973 93.5,497.5 Z"/></g>
<g><path style="opacity:0.999" fill="#8a6c54" d="M 577.5,499.5 C 580.264,500.948 581.931,503.281 582.5,506.5C 582.64,508.124 581.973,509.29 580.5,510C 584.998,535.846 595.998,559.013 613.5,579.5C 617.782,581.697 620.949,585.03 623,589.5C 623.414,589.043 623.914,588.709 624.5,588.5C 625.333,589.5 626.167,590.5 627,591.5C 628.405,590.269 629.571,588.936 630.5,587.5C 639.263,602.701 648.263,617.701 657.5,632.5C 658.5,634.5 659.5,636.5 660.5,638.5C 659.539,640.265 659.205,642.265 659.5,644.5C 657.876,644.64 656.71,643.973 656,642.5C 655.333,643.167 654.667,643.833 654,644.5C 650.702,640.2 647.035,636.2 643,632.5C 632.691,613.709 620.024,596.043 605,579.5C 589.791,557.429 579.291,533.429 573.5,507.5C 574.399,504.605 575.733,501.938 577.5,499.5 Z"/></g>
<g><path style="opacity:0.82" fill="#ab8365" d="M 91.5,500.5 C 91.573,502.027 90.9063,503.027 89.5,503.5C 89.427,501.973 90.0937,500.973 91.5,500.5 Z"/></g>
<g><path style="opacity:0.111" fill="#fcfcfb" d="M 86.5,507.5 C 86.5,507.833 86.5,508.167 86.5,508.5C 84.7497,509.659 83.7497,511.326 83.5,513.5C 82.6618,513.842 82.3284,514.508 82.5,515.5C 82.1667,515.5 81.8333,515.5 81.5,515.5C 81.6944,511.752 83.361,509.085 86.5,507.5 Z"/></g>
<g><path style="opacity:0.878" fill="#aa8264" d="M 88.5,505.5 C 88.573,507.027 87.9063,508.027 86.5,508.5C 86.5,508.167 86.5,507.833 86.5,507.5C 86.5,507.167 86.5,506.833 86.5,506.5C 87.1667,506.167 87.8333,505.833 88.5,505.5 Z"/></g>
<g><path style="opacity:0.999" fill="#86674e" d="M 573.5,507.5 C 579.291,533.429 589.791,557.429 605,579.5C 620.024,596.043 632.691,613.709 643,632.5C 647.035,636.2 650.702,640.2 654,644.5C 654.667,643.833 655.333,643.167 656,642.5C 656.71,643.973 657.876,644.64 659.5,644.5C 659.205,642.265 659.539,640.265 660.5,638.5C 664.416,644.662 668.083,650.995 671.5,657.5C 671.631,658.376 671.298,659.043 670.5,659.5C 668.401,657.48 666.067,657.146 663.5,658.5C 665.973,660.242 665.973,662.075 663.5,664C 666.105,677.734 671.939,690.234 681,701.5C 687.467,714.951 695.134,727.617 704,739.5C 707.632,743.369 711.465,746.869 715.5,750C 717.902,750.814 720.235,750.647 722.5,749.5C 721.223,748.078 721.557,747.078 723.5,746.5C 736.92,767.666 749.587,789.333 761.5,811.5C 761.029,812.901 760.362,814.234 759.5,815.5C 757.78,814.066 755.78,813.233 753.5,813C 749.685,808.855 745.519,805.022 741,801.5C 736.506,789.674 730.339,778.84 722.5,769C 722.833,768.667 723.167,768.333 723.5,768C 713.009,757.503 703.176,746.336 694,734.5C 685.585,720 676.918,705.667 668,691.5C 662.487,678.469 656.82,665.469 651,652.5C 638.215,635.044 626.215,617.044 615,598.5C 598.344,580.865 586.01,560.532 578,537.5C 574.987,529.298 572.487,520.964 570.5,512.5C 570.5,512.167 570.5,511.833 570.5,511.5C 571.143,509.924 572.143,508.59 573.5,507.5 Z"/></g>
<g><path style="opacity:0.878" fill="#b28e73" d="M 86.5,508.5 C 86.2503,510.674 85.2503,512.341 83.5,513.5C 83.7497,511.326 84.7497,509.659 86.5,508.5 Z"/></g>
<g><path style="opacity:0.133" fill="#fdfcfc" d="M 235.5,510.5 C 238.534,513.505 241.368,516.838 244,520.5C 245.122,522.407 245.955,524.407 246.5,526.5C 242.342,521.523 238.676,516.189 235.5,510.5 Z"/></g>
<g><path style="opacity:0.999" fill="#8e715a" d="M 582.5,506.5 C 599.241,532.969 615.241,559.969 630.5,587.5C 629.571,588.936 628.405,590.269 627,591.5C 626.167,590.5 625.333,589.5 624.5,588.5C 623.914,588.709 623.414,589.043 623,589.5C 620.949,585.03 617.782,581.697 613.5,579.5C 595.998,559.013 584.998,535.846 580.5,510C 581.973,509.29 582.64,508.124 582.5,506.5 Z"/></g>
<g><path style="opacity:0.998" fill="#7b4010" d="M 559.5,530.5 C 559.5,530.833 559.5,531.167 559.5,531.5C 558.662,531.842 558.328,532.508 558.5,533.5C 557.833,533.5 557.5,533.833 557.5,534.5C 556.326,535.514 555.66,536.847 555.5,538.5C 554.833,539.167 554.167,539.833 553.5,540.5C 549.303,534.096 546.137,527.096 544,519.5C 542.855,518.316 541.688,518.316 540.5,519.5C 542.9,514.368 545.566,509.368 548.5,504.5C 550.074,504.063 551.241,503.063 552,501.5C 553.121,511.655 555.621,521.322 559.5,530.5 Z"/></g>
<g><path style="opacity:0.123" fill="#fefffe" d="M 81.5,515.5 C 80.5592,517.05 79.8925,518.716 79.5,520.5C 78.2719,521.306 77.2719,522.306 76.5,523.5C 76.9802,520.995 77.9802,518.662 79.5,516.5C 79.9569,515.702 80.6236,515.369 81.5,515.5 Z"/></g>
<g><path style="opacity:0.914" fill="#b18c71" d="M 81.5,515.5 C 81.8333,515.5 82.1667,515.5 82.5,515.5C 82.2503,517.674 81.2503,519.341 79.5,520.5C 79.8925,518.716 80.5592,517.05 81.5,515.5 Z"/></g>
<g><path style="opacity:0.998" fill="#743501" d="M 553.5,540.5 C 553.5,540.833 553.5,541.167 553.5,541.5C 551.902,543.698 550.569,546.031 549.5,548.5C 501.584,629.995 453.918,711.661 406.5,793.5C 405.407,795.349 404.074,797.016 402.5,798.5C 399.133,790.743 396.133,782.743 393.5,774.5C 394.513,771.812 395.513,769.146 396.5,766.5C 396.328,765.508 396.662,764.842 397.5,764.5C 399.25,763.341 400.25,761.674 400.5,759.5C 402.25,758.341 403.25,756.674 403.5,754.5C 403.5,753.833 403.5,753.167 403.5,752.5C 403.833,752.5 404.167,752.5 404.5,752.5C 406.25,751.341 407.25,749.674 407.5,747.5C 409.25,746.341 410.25,744.674 410.5,742.5C 410.328,741.508 410.662,740.842 411.5,740.5C 413.25,739.341 414.25,737.674 414.5,735.5C 416.25,734.341 417.25,732.674 417.5,730.5C 417.328,729.508 417.662,728.842 418.5,728.5C 420.25,727.341 421.25,725.674 421.5,723.5C 423.25,722.341 424.25,720.674 424.5,718.5C 424.328,717.508 424.662,716.842 425.5,716.5C 427.25,715.341 428.25,713.674 428.5,711.5C 429.979,709.28 431.312,706.946 432.5,704.5C 434.25,703.341 435.25,701.674 435.5,699.5C 437.25,698.341 438.25,696.674 438.5,694.5C 438.328,693.508 438.662,692.842 439.5,692.5C 441.25,691.341 442.25,689.674 442.5,687.5C 444.25,686.341 445.25,684.674 445.5,682.5C 445.328,681.508 445.662,680.842 446.5,680.5C 448.25,679.341 449.25,677.674 449.5,675.5C 451.25,674.341 452.25,672.674 452.5,670.5C 452.328,669.508 452.662,668.842 453.5,668.5C 455.25,667.341 456.25,665.674 456.5,663.5C 458.25,662.341 459.25,660.674 459.5,658.5C 459.328,657.508 459.662,656.842 460.5,656.5C 461.906,656.027 462.573,655.027 462.5,653.5C 462.328,652.508 462.662,651.842 463.5,651.5C 465.25,650.341 466.25,648.674 466.5,646.5C 466.5,645.833 466.5,645.167 466.5,644.5C 467.833,642.833 469.167,641.167 470.5,639.5C 472.25,638.341 473.25,636.674 473.5,634.5C 473.328,633.508 473.662,632.842 474.5,632.5C 475.906,632.027 476.573,631.027 476.5,629.5C 476.328,628.508 476.662,627.842 477.5,627.5C 479.25,626.341 480.25,624.674 480.5,622.5C 480.328,621.508 480.662,620.842 481.5,620.5C 482.906,620.027 483.573,619.027 483.5,617.5C 483.328,616.508 483.662,615.842 484.5,615.5C 486.25,614.341 487.25,612.674 487.5,610.5C 487.328,609.508 487.662,608.842 488.5,608.5C 489.906,608.027 490.573,607.027 490.5,605.5C 490.328,604.508 490.662,603.842 491.5,603.5C 493.25,602.341 494.25,600.674 494.5,598.5C 494.833,597.167 495.167,595.833 495.5,594.5C 496.728,593.694 497.728,592.694 498.5,591.5C 500.25,590.341 501.25,588.674 501.5,586.5C 501.328,585.508 501.662,584.842 502.5,584.5C 503.906,584.027 504.573,583.027 504.5,581.5C 504.328,580.508 504.662,579.842 505.5,579.5C 507.25,578.341 508.25,576.674 508.5,574.5C 510.25,573.341 511.25,571.674 511.5,569.5C 511.328,568.508 511.662,567.842 512.5,567.5C 514.25,566.341 515.25,564.674 515.5,562.5C 517.25,561.341 518.25,559.674 518.5,557.5C 518.328,556.508 518.662,555.842 519.5,555.5C 521.25,554.341 522.25,552.674 522.5,550.5C 524.25,549.341 525.25,547.674 525.5,545.5C 525.328,544.508 525.662,543.842 526.5,543.5C 528.25,542.341 529.25,540.674 529.5,538.5C 531.25,537.341 532.25,535.674 532.5,533.5C 534.664,528.5 537.331,523.833 540.5,519.5C 541.688,518.316 542.855,518.316 544,519.5C 546.137,527.096 549.303,534.096 553.5,540.5 Z"/></g>
<g><path style="opacity:0.999" fill="#7e5b41" d="M 568.5,516.5 C 575.825,547.819 589.991,575.486 611,599.5C 619.267,611.759 627.1,624.259 634.5,637C 647.287,653.484 657.121,671.65 664,691.5C 677.856,715.665 692.856,738.998 709,761.5C 718.145,769.772 724.811,779.772 729,791.5C 736.557,803.723 744.891,815.39 754,826.5C 756.754,828.127 759.588,829.627 762.5,831C 766.287,836.456 770.454,841.623 775,846.5C 785.041,863.416 795.208,880.25 805.5,897C 804.328,897.419 803.328,898.085 802.5,899C 804.879,902.256 806.879,905.756 808.5,909.5C 809.242,910.287 810.075,910.953 811,911.5C 811,910.167 811,908.833 811,907.5C 818.763,920.022 825.763,933.022 832,946.5C 839.858,956.208 846.191,966.875 851,978.5C 853.667,981.833 856.333,985.167 859,988.5C 861.22,991.54 862.72,994.873 863.5,998.5C 865.39,998.297 866.89,998.963 868,1000.5C 871.507,1005.51 874.507,1010.84 877,1016.5C 878,1017.83 879,1017.83 880,1016.5C 881.723,1018.72 883.223,1021.05 884.5,1023.5C 881.833,1023.5 879.167,1023.5 876.5,1023.5C 865.994,1006.49 854.494,990.161 842,974.5C 833.245,961.043 825.245,947.043 818,932.5C 812.42,925.008 807.087,917.341 802,909.5C 788.667,886.833 775.333,864.167 762,841.5C 754.333,832.833 746.667,824.167 739,815.5C 730.133,801.094 721.799,786.428 714,771.5C 699.606,754.386 686.94,736.052 676,716.5C 665.279,701.063 656.612,684.397 650,666.5C 638.866,649.589 628.2,632.255 618,614.5C 606.168,600.334 595.502,585.334 586,569.5C 578.07,553.32 571.57,536.653 566.5,519.5C 566.427,517.973 567.094,516.973 568.5,516.5 Z"/></g>
<g><path style="opacity:0.999" fill="#724c2e" d="M 563.5,525.5 C 568.524,542.066 575.024,558.066 583,573.5C 602.394,602.564 621.394,631.897 640,661.5C 658.713,700.615 680.713,737.615 706,772.5C 715.753,788.433 724.753,804.766 733,821.5C 745.393,839.563 757.393,857.896 769,876.5C 787.8,912.774 809.133,947.44 833,980.5C 841.361,995.905 851.195,1010.24 862.5,1023.5C 860.5,1023.5 858.5,1023.5 856.5,1023.5C 856.649,1022.45 856.483,1021.45 856,1020.5C 850.667,1013.83 845.333,1007.17 840,1000.5C 822.249,972.663 804.249,944.996 786,917.5C 778.215,901.042 769.548,885.042 760,869.5C 743.533,845.568 728.866,820.568 716,794.5C 696.413,764.327 677.08,733.993 658,703.5C 651.52,690.607 645.187,677.607 639,664.5C 630.548,653.917 623.381,642.584 617.5,630.5C 606.145,613.641 594.979,596.641 584,579.5C 574.592,562.693 567.426,545.026 562.5,526.5C 562.5,525.833 562.833,525.5 563.5,525.5 Z"/></g>
<g><path style="opacity:0.163" fill="#fbf9f7" d="M 246.5,526.5 C 249.182,528.53 250.849,531.197 251.5,534.5C 249.336,532.178 247.669,529.511 246.5,526.5 Z"/></g>
<g><path style="opacity:0.999" fill="#6e4728" d="M 562.5,526.5 C 567.426,545.026 574.592,562.693 584,579.5C 594.979,596.641 606.145,613.641 617.5,630.5C 623.381,642.584 630.548,653.917 639,664.5C 645.187,677.607 651.52,690.607 658,703.5C 677.08,733.993 696.413,764.327 716,794.5C 728.866,820.568 743.533,845.568 760,869.5C 769.548,885.042 778.215,901.042 786,917.5C 804.249,944.996 822.249,972.663 840,1000.5C 845.333,1007.17 850.667,1013.83 856,1020.5C 856.483,1021.45 856.649,1022.45 856.5,1023.5C 855.167,1023.5 853.833,1023.5 852.5,1023.5C 819.675,977.881 789.841,930.214 763,880.5C 743.487,850.82 725.487,820.153 709,788.5C 690.763,760.369 672.763,732.035 655,703.5C 649.007,691.535 643.007,679.535 637,667.5C 620.25,640.331 603.25,613.331 586,586.5C 575.001,568.329 566.835,548.996 561.5,528.5C 561.328,527.508 561.662,526.842 562.5,526.5 Z"/></g>
<g><path style="opacity:0.914" fill="#d9c4b6" d="M 79.5,520.5 C 76.381,526.422 73.0476,532.088 69.5,537.5C 69.5,536.833 69.5,536.167 69.5,535.5C 71.33,531.169 73.6634,527.169 76.5,523.5C 77.2719,522.306 78.2719,521.306 79.5,520.5 Z"/></g>
<g><path style="opacity:0.999" fill="#663c1b" d="M 559.5,531.5 C 564.881,548.487 571.714,564.82 580,580.5C 598.571,610.635 616.905,640.968 635,671.5C 643.54,690.252 653.874,707.918 666,724.5C 687.919,761.336 709.586,798.336 731,835.5C 739.501,849.84 748.501,863.84 758,877.5C 765.127,892.419 772.793,907.086 781,921.5C 802.43,956.04 824.597,990.04 847.5,1023.5C 846.167,1023.5 844.833,1023.5 843.5,1023.5C 821.105,989.059 798.938,954.393 777,919.5C 762.713,890.252 746.379,862.252 728,835.5C 701.672,788.163 673.839,741.829 644.5,696.5C 641.018,689.536 637.518,682.536 634,675.5C 615.667,644.5 597.333,613.5 579,582.5C 570.516,566.865 563.683,550.531 558.5,533.5C 558.328,532.508 558.662,531.842 559.5,531.5 Z"/></g>
<g><path style="opacity:0.999" fill="#623715" d="M 558.5,533.5 C 563.683,550.531 570.516,566.865 579,582.5C 597.333,613.5 615.667,644.5 634,675.5C 637.518,682.536 641.018,689.536 644.5,696.5C 673.839,741.829 701.672,788.163 728,835.5C 746.379,862.252 762.713,890.252 777,919.5C 798.938,954.393 821.105,989.059 843.5,1023.5C 842.5,1023.5 841.5,1023.5 840.5,1023.5C 809.418,977.694 780.585,930.361 754,881.5C 720.409,828.663 688.076,774.997 657,720.5C 652.667,714.167 648.333,707.833 644,701.5C 622.253,662.338 600.253,623.338 578,584.5C 569.101,568.625 562.268,551.958 557.5,534.5C 557.5,533.833 557.833,533.5 558.5,533.5 Z"/></g>
<g><path style="opacity:0.115" fill="#f7f3f1" d="M 69.5,535.5 C 69.5,536.167 69.5,536.833 69.5,537.5C 68.3263,538.514 67.6596,539.847 67.5,541.5C 66.3127,543.072 65.3127,544.739 64.5,546.5C 64.1667,546.5 63.8333,546.5 63.5,546.5C 64.7417,542.345 66.7417,538.678 69.5,535.5 Z"/></g>
<g><path style="opacity:0.129" fill="#fdfdfd" d="M 251.5,534.5 C 254.682,536.193 256.348,538.859 256.5,542.5C 254.833,540.5 253.167,538.5 251.5,536.5C 251.5,535.833 251.5,535.167 251.5,534.5 Z"/></g>
<g><path style="opacity:0.827" fill="#b28c71" d="M 532.5,533.5 C 532.25,535.674 531.25,537.341 529.5,538.5C 529.5,537.833 529.5,537.167 529.5,536.5C 530.272,535.306 531.272,534.306 532.5,533.5 Z"/></g>
<g><path style="opacity:0.999" fill="#5b2d0a" d="M 555.5,538.5 C 560.842,553.867 567.342,568.867 575,583.5C 596.563,621.617 617.896,659.951 639,698.5C 645.767,709.6 652.934,720.433 660.5,731C 688.577,783.327 719.077,834.16 752,883.5C 778.441,931.389 806.608,978.056 836.5,1023.5C 835.5,1023.5 834.5,1023.5 833.5,1023.5C 804.823,979.492 777.656,934.492 752,888.5C 716.524,838.563 684.858,786.229 657,731.5C 647.333,716.5 637.667,701.5 628,686.5C 610.365,651.228 591.699,616.561 572,582.5C 565.235,568.98 559.069,555.314 553.5,541.5C 553.5,541.167 553.5,540.833 553.5,540.5C 554.167,539.833 554.833,539.167 555.5,538.5 Z"/></g>
<g><path style="opacity:0.992" fill="#ad876a" d="M 69.5,537.5 C 69.7709,539.38 69.1042,540.713 67.5,541.5C 67.6596,539.847 68.3263,538.514 69.5,537.5 Z"/></g>
<g><path style="opacity:0.871" fill="#b08c6f" d="M 529.5,538.5 C 529.25,540.674 528.25,542.341 526.5,543.5C 526.75,541.326 527.75,539.659 529.5,538.5 Z"/></g>
<g><path style="opacity:0.166" fill="#fdfcfb" d="M 256.5,542.5 C 260.417,545.988 263.083,550.321 264.5,555.5C 261.084,551.677 258.418,547.343 256.5,542.5 Z"/></g>
<g><path style="opacity:0.128" fill="#fdfdfd" d="M 529.5,536.5 C 529.5,537.167 529.5,537.833 529.5,538.5C 527.75,539.659 526.75,541.326 526.5,543.5C 525.662,543.842 525.328,544.508 525.5,545.5C 523.75,546.659 522.75,548.326 522.5,550.5C 520.75,551.659 519.75,553.326 519.5,555.5C 518.662,555.842 518.328,556.508 518.5,557.5C 517.833,557.833 517.167,558.167 516.5,558.5C 518.795,552.577 521.628,546.91 525,541.5C 526.067,539.308 527.567,537.642 529.5,536.5 Z"/></g>
<g><path style="opacity:0.999" fill="#562702" d="M 553.5,541.5 C 559.069,555.314 565.235,568.98 572,582.5C 591.699,616.561 610.365,651.228 628,686.5C 637.667,701.5 647.333,716.5 657,731.5C 684.858,786.229 716.524,838.563 752,888.5C 777.656,934.492 804.823,979.492 833.5,1023.5C 831.167,1023.5 828.833,1023.5 826.5,1023.5C 799.34,981.194 773.173,938.194 748,894.5C 740,889.167 733.333,882.5 728,874.5C 709.42,848.349 692.086,821.349 676,793.5C 658,760.833 640,728.167 622,695.5C 597.876,646.177 573.709,597.177 549.5,548.5C 550.569,546.031 551.902,543.698 553.5,541.5 Z"/></g>
<g><path style="opacity:0.871" fill="#b08b70" d="M 525.5,545.5 C 525.25,547.674 524.25,549.341 522.5,550.5C 522.75,548.326 523.75,546.659 525.5,545.5 Z"/></g>
<g><path style="opacity:0.999" fill="#552500" d="M 549.5,548.5 C 573.709,597.177 597.876,646.177 622,695.5C 640,728.167 658,760.833 676,793.5C 692.086,821.349 709.42,848.349 728,874.5C 733.333,882.5 740,889.167 748,894.5C 773.173,938.194 799.34,981.194 826.5,1023.5C 727.833,1023.5 629.167,1023.5 530.5,1023.5C 514.157,988.478 495.99,954.478 476,921.5C 453.413,878.44 430.246,835.774 406.5,793.5C 453.918,711.661 501.584,629.995 549.5,548.5 Z"/></g>
<g><path style="opacity:0.992" fill="#ae886b" d="M 63.5,546.5 C 63.8333,546.5 64.1667,546.5 64.5,546.5C 64.7709,548.38 64.1042,549.713 62.5,550.5C 62.5569,549.391 62.8902,548.391 63.5,547.5C 63.5,547.167 63.5,546.833 63.5,546.5 Z"/></g>
<g><path style="opacity:0.886" fill="#b18c71" d="M 522.5,550.5 C 522.25,552.674 521.25,554.341 519.5,555.5C 519.75,553.326 520.75,551.659 522.5,550.5 Z"/></g>
<g><path style="opacity:0.162" fill="#f5eeea" d="M 63.5,547.5 C 62.8902,548.391 62.5569,549.391 62.5,550.5C 59.9221,555.783 57.2554,561.116 54.5,566.5C 54.1667,566.5 53.8333,566.5 53.5,566.5C 55.6852,560.306 58.3518,554.306 61.5,548.5C 61.9569,547.702 62.6236,547.369 63.5,547.5 Z"/></g>
<g><path style="opacity:0.168" fill="#fefffe" d="M 516.5,558.5 C 516.167,559.833 515.833,561.167 515.5,562.5C 514.833,562.833 514.167,563.167 513.5,563.5C 513.259,560.966 514.259,559.3 516.5,558.5 Z"/></g>
<g><path style="opacity:0.969" fill="#b18c71" d="M 518.5,557.5 C 518.25,559.674 517.25,561.341 515.5,562.5C 515.833,561.167 516.167,559.833 516.5,558.5C 517.167,558.167 517.833,557.833 518.5,557.5 Z"/></g>
<g><path style="opacity:0.164" fill="#fdfcfc" d="M 264.5,555.5 C 272.634,566.343 279.634,578.01 285.5,590.5C 281.5,584.5 277.5,578.5 273.5,572.5C 270.245,566.992 267.245,561.325 264.5,555.5 Z"/></g>
<g><path style="opacity:0.792" fill="#b28d72" d="M 515.5,562.5 C 515.25,564.674 514.25,566.341 512.5,567.5C 512.833,566.167 513.167,564.833 513.5,563.5C 514.167,563.167 514.833,562.833 515.5,562.5 Z"/></g>
<g><path style="opacity:0.113" fill="#dfcec2" d="M 53.5,566.5 C 53.8333,566.5 54.1667,566.5 54.5,566.5C 52.0698,572.357 49.4032,578.023 46.5,583.5C 46.5,582.833 46.5,582.167 46.5,581.5C 47.5144,575.808 49.8478,570.808 53.5,566.5 Z"/></g>
<g><path style="opacity:0.12" fill="#fdfdfc" d="M 513.5,563.5 C 513.167,564.833 512.833,566.167 512.5,567.5C 511.662,567.842 511.328,568.508 511.5,569.5C 509.75,570.659 508.75,572.326 508.5,574.5C 506.75,575.659 505.75,577.326 505.5,579.5C 504.662,579.842 504.328,580.508 504.5,581.5C 503.094,581.973 502.427,582.973 502.5,584.5C 501.662,584.842 501.328,585.508 501.5,586.5C 499.75,587.659 498.75,589.326 498.5,591.5C 497.728,592.694 496.728,593.694 495.5,594.5C 500.362,584.29 505.695,574.29 511.5,564.5C 511.957,563.702 512.624,563.369 513.5,563.5 Z"/></g>
<g><path style="opacity:0.961" fill="#b28d72" d="M 511.5,569.5 C 511.25,571.674 510.25,573.341 508.5,574.5C 508.75,572.326 509.75,570.659 511.5,569.5 Z"/></g>
<g><path style="opacity:0.995" fill="#8d582d" d="M 273.5,572.5 C 277.5,578.5 281.5,584.5 285.5,590.5C 292.058,603.281 298.892,615.948 306,628.5C 308.947,634.732 312.113,640.732 315.5,646.5C 318.736,652.3 321.403,658.3 323.5,664.5C 322.883,664.611 322.383,664.944 322,665.5C 311.679,644.851 300.346,624.851 288,605.5C 282.833,595.167 277.667,584.833 272.5,574.5C 272.863,573.817 273.196,573.15 273.5,572.5 Z"/></g>
<g><path style="opacity:0.878" fill="#b28d71" d="M 508.5,574.5 C 508.25,576.674 507.25,578.341 505.5,579.5C 505.75,577.326 506.75,575.659 508.5,574.5 Z"/></g>
<g><path style="opacity:0.139" fill="#fefffe" d="M 46.5,581.5 C 46.5,582.167 46.5,582.833 46.5,583.5C 44.8333,586.167 43.1667,588.833 41.5,591.5C 42.0419,587.502 43.7086,584.168 46.5,581.5 Z"/></g>
<g><path style="opacity:0.937" fill="#aa8264" d="M 504.5,581.5 C 504.573,583.027 503.906,584.027 502.5,584.5C 502.427,582.973 503.094,581.973 504.5,581.5 Z"/></g>
<g><path style="opacity:0.984" fill="#b08b6f" d="M 501.5,586.5 C 501.25,588.674 500.25,590.341 498.5,591.5C 498.75,589.326 499.75,587.659 501.5,586.5 Z"/></g>
<g><path style="opacity:0.179" fill="#fefffe" d="M 41.5,591.5 C 40.0078,595.818 38.0078,599.818 35.5,603.5C 36.1832,598.748 38.1832,594.748 41.5,591.5 Z"/></g>
<g><path style="opacity:0.123" fill="#fefdfd" d="M 495.5,594.5 C 495.167,595.833 494.833,597.167 494.5,598.5C 492.75,599.659 491.75,601.326 491.5,603.5C 490.662,603.842 490.328,604.508 490.5,605.5C 489.094,605.973 488.427,606.973 488.5,608.5C 487.662,608.842 487.328,609.508 487.5,610.5C 486.833,610.833 486.167,611.167 485.5,611.5C 487.577,605.002 490.91,599.335 495.5,594.5 Z"/></g>
<g><path style="opacity:0.999" fill="#5e320f" d="M 557.5,534.5 C 562.268,551.958 569.101,568.625 578,584.5C 600.253,623.338 622.253,662.338 644,701.5C 648.333,707.833 652.667,714.167 657,720.5C 688.076,774.997 720.409,828.663 754,881.5C 780.585,930.361 809.418,977.694 840.5,1023.5C 839.167,1023.5 837.833,1023.5 836.5,1023.5C 806.608,978.056 778.441,931.389 752,883.5C 719.077,834.16 688.577,783.327 660.5,731C 652.934,720.433 645.767,709.6 639,698.5C 617.896,659.951 596.563,621.617 575,583.5C 567.342,568.867 560.842,553.867 555.5,538.5C 555.66,536.847 556.326,535.514 557.5,534.5 Z"/></g>
<g><path style="opacity:0.91" fill="#b18d71" d="M 494.5,598.5 C 494.25,600.674 493.25,602.341 491.5,603.5C 491.75,601.326 492.75,599.659 494.5,598.5 Z"/></g>
<g><path style="opacity:0.984" fill="#ab8365" d="M 490.5,605.5 C 490.573,607.027 489.906,608.027 488.5,608.5C 488.427,606.973 489.094,605.973 490.5,605.5 Z"/></g>
<g><path style="opacity:0.961" fill="#b7967d" d="M 34.5,607.5 C 34.573,609.027 33.9063,610.027 32.5,610.5C 32.427,608.973 33.0937,607.973 34.5,607.5 Z"/></g>
<g><path style="opacity:0.112" fill="#fdfcfc" d="M 485.5,611.5 C 485.167,612.833 484.833,614.167 484.5,615.5C 483.662,615.842 483.328,616.508 483.5,617.5C 482.094,617.973 481.427,618.973 481.5,620.5C 480.662,620.842 480.328,621.508 480.5,622.5C 478.75,623.659 477.75,625.326 477.5,627.5C 476.662,627.842 476.328,628.508 476.5,629.5C 475.094,629.973 474.427,630.973 474.5,632.5C 473.662,632.842 473.328,633.508 473.5,634.5C 471.75,635.659 470.75,637.326 470.5,639.5C 469.167,641.167 467.833,642.833 466.5,644.5C 471.631,632.728 477.965,621.728 485.5,611.5 Z"/></g>
<g><path style="opacity:0.71" fill="#b28e72" d="M 487.5,610.5 C 487.25,612.674 486.25,614.341 484.5,615.5C 484.833,614.167 485.167,612.833 485.5,611.5C 486.167,611.167 486.833,610.833 487.5,610.5 Z"/></g>
<g><path style="opacity:0.855" fill="#e7dbd2" d="M 35.5,603.5 C 35.1667,604.833 34.8333,606.167 34.5,607.5C 33.0937,607.973 32.427,608.973 32.5,610.5C 32.0075,612.819 31.0075,614.819 29.5,616.5C 28.3263,617.514 27.6596,618.847 27.5,620.5C 23.3009,630.564 18.3009,640.231 12.5,649.5C 13.031,646.763 13.8644,644.096 15,641.5C 21.1895,630.454 26.8561,619.121 32,607.5C 32.9487,605.907 34.1154,604.574 35.5,603.5 Z"/></g>
<g><path style="opacity:0.984" fill="#ad876a" d="M 29.5,616.5 C 29.7709,618.38 29.1042,619.713 27.5,620.5C 27.6596,618.847 28.3263,617.514 29.5,616.5 Z"/></g>
<g><path style="opacity:0.945" fill="#ab8365" d="M 483.5,617.5 C 483.573,619.027 482.906,620.027 481.5,620.5C 481.427,618.973 482.094,617.973 483.5,617.5 Z"/></g>
<g><path style="opacity:0.773" fill="#b18d71" d="M 480.5,622.5 C 480.25,624.674 479.25,626.341 477.5,627.5C 477.75,625.326 478.75,623.659 480.5,622.5 Z"/></g>
<g><path style="opacity:0.976" fill="#aa8264" d="M 476.5,629.5 C 476.573,631.027 475.906,632.027 474.5,632.5C 474.427,630.973 475.094,629.973 476.5,629.5 Z"/></g>
<g><path style="opacity:0.91" fill="#b08b6f" d="M 473.5,634.5 C 473.25,636.674 472.25,638.341 470.5,639.5C 470.75,637.326 471.75,635.659 473.5,634.5 Z"/></g>
<g><path style="opacity:0.194" fill="#faf8f7" d="M 860.5,933.5 C 852.77,921.764 845.436,909.764 838.5,897.5C 770.39,780.934 702.057,664.601 633.5,548.5C 621.749,527.994 609.749,507.661 597.5,487.5C 594.562,479.793 590.229,472.96 584.5,467C 576.961,463.678 571.128,465.511 567,472.5C 561.074,483.358 554.908,494.024 548.5,504.5C 545.566,509.368 542.9,514.368 540.5,519.5C 537.331,523.833 534.664,528.5 532.5,533.5C 531.272,534.306 530.272,535.306 529.5,536.5C 530.719,532.76 532.219,529.093 534,525.5C 545.239,506.025 556.739,486.691 568.5,467.5C 574.681,462.599 581.181,462.265 588,466.5C 678.393,619.777 768.393,773.111 858,926.5C 859.411,928.65 860.245,930.984 860.5,933.5 Z"/></g>
<g><path style="opacity:0.998" fill="#8c592f" d="M 597.5,487.5 C 596.399,488.598 595.066,488.765 593.5,488C 582.211,478.358 572.378,479.525 564,491.5C 562.336,495.156 561.503,498.99 561.5,503C 562.015,509.259 563.015,515.426 564.5,521.5C 564.167,522.833 563.833,524.167 563.5,525.5C 562.833,525.5 562.5,525.833 562.5,526.5C 561.662,526.842 561.328,527.508 561.5,528.5C 560.5,528.833 559.833,529.5 559.5,530.5C 555.621,521.322 553.121,511.655 552,501.5C 551.241,503.063 550.074,504.063 548.5,504.5C 554.908,494.024 561.074,483.358 567,472.5C 571.128,465.511 576.961,463.678 584.5,467C 590.229,472.96 594.562,479.793 597.5,487.5 Z"/></g>
<g><path style="opacity:0.12" fill="#fcfcfb" d="M 466.5,644.5 C 466.5,645.167 466.5,645.833 466.5,646.5C 464.75,647.659 463.75,649.326 463.5,651.5C 462.662,651.842 462.328,652.508 462.5,653.5C 461.833,653.833 461.167,654.167 460.5,654.5C 461.346,650.353 463.346,647.02 466.5,644.5 Z"/></g>
<g><path style="opacity:0.953" fill="#b18d71" d="M 466.5,646.5 C 466.25,648.674 465.25,650.341 463.5,651.5C 463.75,649.326 464.75,647.659 466.5,646.5 Z"/></g>
<g><path style="opacity:0.126" fill="#f8f4f1" d="M 12.5,649.5 C 11.1196,652.911 9.78632,656.244 8.5,659.5C 8.16667,659.5 7.83333,659.5 7.5,659.5C 8.12663,655.58 9.7933,652.247 12.5,649.5 Z"/></g>
<g><path style="opacity:0.088" fill="#fefefe" d="M 460.5,654.5 C 460.5,655.167 460.5,655.833 460.5,656.5C 459.662,656.842 459.328,657.508 459.5,658.5C 457.75,659.659 456.75,661.326 456.5,663.5C 455.833,663.833 455.167,664.167 454.5,664.5C 455.479,660.539 457.479,657.206 460.5,654.5 Z"/></g>
<g><path style="opacity:0.827" fill="#ab8365" d="M 462.5,653.5 C 462.573,655.027 461.906,656.027 460.5,656.5C 460.5,655.833 460.5,655.167 460.5,654.5C 461.167,654.167 461.833,653.833 462.5,653.5 Z"/></g>
<g><path style="opacity:0.827" fill="#b28e72" d="M 459.5,658.5 C 459.25,660.674 458.25,662.341 456.5,663.5C 456.75,661.326 457.75,659.659 459.5,658.5 Z"/></g>
<g><path style="opacity:0.663" fill="#c5aa95" d="M 7.5,659.5 C 7.83333,659.5 8.16667,659.5 8.5,659.5C 8.24512,661.967 7.24512,663.967 5.5,665.5C 5.55688,664.391 5.89022,663.391 6.5,662.5C 6.26269,661.209 6.59603,660.209 7.5,659.5 Z"/></g>
<g><path style="opacity:0.089" fill="#fefffe" d="M 6.5,662.5 C 5.89022,663.391 5.55688,664.391 5.5,665.5C 4.32627,666.514 3.6596,667.847 3.5,669.5C 3.16667,669.5 2.83333,669.5 2.5,669.5C 2.58399,666.318 3.91732,663.985 6.5,662.5 Z"/></g>
<g><path style="opacity:0.999" fill="#8b6d55" d="M 671.5,657.5 C 689.527,686.582 706.86,716.249 723.5,746.5C 721.557,747.078 721.223,748.078 722.5,749.5C 720.235,750.647 717.902,750.814 715.5,750C 711.465,746.869 707.632,743.369 704,739.5C 695.134,727.617 687.467,714.951 681,701.5C 671.939,690.234 666.105,677.734 663.5,664C 665.973,662.075 665.973,660.242 663.5,658.5C 666.067,657.146 668.401,657.48 670.5,659.5C 671.298,659.043 671.631,658.376 671.5,657.5 Z"/></g>
<g><path style="opacity:0.105" fill="#fefefe" d="M 454.5,664.5 C 454.167,665.833 453.833,667.167 453.5,668.5C 452.662,668.842 452.328,669.508 452.5,670.5C 451.833,670.833 451.167,671.167 450.5,671.5C 451.079,668.669 452.412,666.336 454.5,664.5 Z"/></g>
<g><path style="opacity:0.757" fill="#b69378" d="M 456.5,663.5 C 456.25,665.674 455.25,667.341 453.5,668.5C 453.833,667.167 454.167,665.833 454.5,664.5C 455.167,664.167 455.833,663.833 456.5,663.5 Z"/></g>
<g><path style="opacity:0.14" fill="#fefffe" d="M 450.5,671.5 C 450.167,672.833 449.833,674.167 449.5,675.5C 448.833,675.833 448.167,676.167 447.5,676.5C 447.75,674.326 448.75,672.659 450.5,671.5 Z"/></g>
<g><path style="opacity:0.569" fill="#d6beae" d="M 2.5,669.5 C 2.83333,669.5 3.16667,669.5 3.5,669.5C 3.26869,672.063 1.93536,673.73 -0.5,674.5C -0.5,673.833 -0.5,673.167 -0.5,672.5C 0.728127,671.694 1.72813,670.694 2.5,669.5 Z"/></g>
<g><path style="opacity:0.773" fill="#b18d71" d="M 452.5,670.5 C 452.25,672.674 451.25,674.341 449.5,675.5C 449.833,674.167 450.167,672.833 450.5,671.5C 451.167,671.167 451.833,670.833 452.5,670.5 Z"/></g>
<g><path style="opacity:0.142" fill="#f8f5f2" d="M 285.5,590.5 C 296.798,609.08 307.632,628.08 318,647.5C 339.539,691.15 360.873,734.817 382,778.5C 382.49,779.793 382.657,781.127 382.5,782.5C 372.509,763.516 362.842,744.516 353.5,725.5C 344.319,704.803 334.319,684.47 323.5,664.5C 321.403,658.3 318.736,652.3 315.5,646.5C 312.113,640.732 308.947,634.732 306,628.5C 298.892,615.948 292.058,603.281 285.5,590.5 Z"/></g>
<g><path style="opacity:0.914" fill="#b49176" d="M 449.5,675.5 C 449.25,677.674 448.25,679.341 446.5,680.5C 446.833,679.167 447.167,677.833 447.5,676.5C 448.167,676.167 448.833,675.833 449.5,675.5 Z"/></g>
<g><path style="opacity:0.099" fill="#fefefe" d="M 447.5,676.5 C 447.167,677.833 446.833,679.167 446.5,680.5C 445.662,680.842 445.328,681.508 445.5,682.5C 443.75,683.659 442.75,685.326 442.5,687.5C 441.833,687.833 441.167,688.167 440.5,688.5C 442.043,683.976 444.377,679.976 447.5,676.5 Z"/></g>
<g><path style="opacity:0.792" fill="#b18b6f" d="M 445.5,682.5 C 445.25,684.674 444.25,686.341 442.5,687.5C 442.75,685.326 443.75,683.659 445.5,682.5 Z"/></g>
<g><path style="opacity:0.084" fill="#fefefe" d="M 440.5,688.5 C 440.167,689.833 439.833,691.167 439.5,692.5C 438.662,692.842 438.328,693.508 438.5,694.5C 438.167,694.5 437.833,694.5 437.5,694.5C 437.461,691.911 438.461,689.911 440.5,688.5 Z"/></g>
<g><path style="opacity:0.729" fill="#b49075" d="M 442.5,687.5 C 442.25,689.674 441.25,691.341 439.5,692.5C 439.833,691.167 440.167,689.833 440.5,688.5C 441.167,688.167 441.833,687.833 442.5,687.5 Z"/></g>
<g><path style="opacity:0.092" fill="#fefffe" d="M 437.5,694.5 C 436.559,696.05 435.893,697.716 435.5,699.5C 434.272,700.306 433.272,701.306 432.5,702.5C 432.98,699.995 433.98,697.662 435.5,695.5C 435.957,694.702 436.624,694.369 437.5,694.5 Z"/></g>
<g><path style="opacity:0.969" fill="#b18d71" d="M 437.5,694.5 C 437.833,694.5 438.167,694.5 438.5,694.5C 438.25,696.674 437.25,698.341 435.5,699.5C 435.893,697.716 436.559,696.05 437.5,694.5 Z"/></g>
<g><path style="opacity:0.851" fill="#b49176" d="M 435.5,699.5 C 435.25,701.674 434.25,703.341 432.5,704.5C 432.5,703.833 432.5,703.167 432.5,702.5C 433.272,701.306 434.272,700.306 435.5,699.5 Z"/></g>
<g><path style="opacity:0.104" fill="#f3ede9" d="M 432.5,702.5 C 432.5,703.167 432.5,703.833 432.5,704.5C 431.312,706.946 429.979,709.28 428.5,711.5C 426.75,712.659 425.75,714.326 425.5,716.5C 424.662,716.842 424.328,717.508 424.5,718.5C 423.272,719.306 422.272,720.306 421.5,721.5C 423.889,714.384 427.556,708.051 432.5,702.5 Z"/></g>
<g><path style="opacity:0.976" fill="#b49075" d="M 428.5,711.5 C 428.25,713.674 427.25,715.341 425.5,716.5C 425.75,714.326 426.75,712.659 428.5,711.5 Z"/></g>
<g><path style="opacity:0.996" fill="#8e5c33" d="M 633.5,548.5 C 702.057,664.601 770.39,780.934 838.5,897.5C 838.085,901.061 837.085,900.894 835.5,897C 834.833,896.333 834.167,896.333 833.5,897C 837.874,902.911 841.874,909.078 845.5,915.5C 823.863,885.044 803.03,853.377 783,820.5C 779.719,811.232 775.886,802.232 771.5,793.5C 763.86,782.693 756.026,772.026 748,761.5C 737.466,741.76 726.966,722.093 716.5,702.5C 712.1,699.268 708.6,695.268 706,690.5C 703.945,685.39 701.612,680.39 699,675.5C 689.885,663.868 681.718,651.535 674.5,638.5C 666.761,618.354 656.928,599.354 645,581.5C 640.333,572.167 635.667,562.833 631,553.5C 630.506,551.866 630.34,550.199 630.5,548.5C 631.5,548.5 632.5,548.5 633.5,548.5 Z"/></g>
<g><path style="opacity:0.757" fill="#b28d71" d="M 424.5,718.5 C 424.25,720.674 423.25,722.341 421.5,723.5C 421.5,722.833 421.5,722.167 421.5,721.5C 422.272,720.306 423.272,719.306 424.5,718.5 Z"/></g>
<g><path style="opacity:0.109" fill="#fefefd" d="M 421.5,721.5 C 421.5,722.167 421.5,722.833 421.5,723.5C 419.75,724.659 418.75,726.326 418.5,728.5C 417.662,728.842 417.328,729.508 417.5,730.5C 416.833,730.833 416.167,731.167 415.5,731.5C 416.498,727.495 418.498,724.161 421.5,721.5 Z"/></g>
<g><path style="opacity:0.953" fill="#b38f73" d="M 421.5,723.5 C 421.25,725.674 420.25,727.341 418.5,728.5C 418.75,726.326 419.75,724.659 421.5,723.5 Z"/></g>
<g><path style="opacity:0.999" fill="#9b714e" d="M 764.5,814.5 C 763.728,813.306 762.728,812.306 761.5,811.5C 749.587,789.333 736.92,767.666 723.5,746.5C 706.86,716.249 689.527,686.582 671.5,657.5C 668.083,650.995 664.416,644.662 660.5,638.5C 659.5,636.5 658.5,634.5 657.5,632.5C 656.721,626.66 655.221,620.993 653,615.5C 647.333,605.167 641.667,594.833 636,584.5C 628.159,562.151 618.159,540.818 606,520.5C 601.3,513.23 595.8,506.73 589.5,501C 585.595,498.511 581.595,498.011 577.5,499.5C 575.733,501.938 574.399,504.605 573.5,507.5C 572.143,508.59 571.143,509.924 570.5,511.5C 568.52,505.297 570.187,499.464 575.5,494C 579.471,492.087 583.471,492.087 587.5,494C 595.78,499.947 602.28,507.447 607,516.5C 618.963,537.427 629.63,559.094 639,581.5C 644.136,590.648 649.303,599.815 654.5,609C 660.747,622.66 666.58,636.494 672,650.5C 681.147,659.976 689.147,670.31 696,681.5C 704.333,696.167 712.667,710.833 721,725.5C 727.704,739.066 733.37,752.733 738,766.5C 741.551,769.194 744.051,772.528 745.5,776.5C 746.822,776.33 747.989,776.663 749,777.5C 752.159,783.026 755.826,788.359 760,793.5C 761.125,797.553 762.625,801.386 764.5,805C 763.792,808.04 763.792,811.206 764.5,814.5 Z"/></g>
<g><path style="opacity:0.812" fill="#b08b6f" d="M 417.5,730.5 C 417.25,732.674 416.25,734.341 414.5,735.5C 414.833,734.167 415.167,732.833 415.5,731.5C 416.167,731.167 416.833,730.833 417.5,730.5 Z"/></g>
<g><path style="opacity:0.78" fill="#b28f73" d="M 414.5,735.5 C 414.25,737.674 413.25,739.341 411.5,740.5C 411.75,738.326 412.75,736.659 414.5,735.5 Z"/></g>
<g><path style="opacity:0.999" fill="#7a563b" d="M 566.5,519.5 C 571.57,536.653 578.07,553.32 586,569.5C 595.502,585.334 606.168,600.334 618,614.5C 628.2,632.255 638.866,649.589 650,666.5C 656.612,684.397 665.279,701.063 676,716.5C 686.94,736.052 699.606,754.386 714,771.5C 721.799,786.428 730.133,801.094 739,815.5C 746.667,824.167 754.333,832.833 762,841.5C 775.333,864.167 788.667,886.833 802,909.5C 807.087,917.341 812.42,925.008 818,932.5C 825.245,947.043 833.245,961.043 842,974.5C 854.494,990.161 865.994,1006.49 876.5,1023.5C 874.167,1023.5 871.833,1023.5 869.5,1023.5C 867.672,1019.16 864.839,1015.49 861,1012.5C 849.161,994.153 836.827,976.153 824,958.5C 811.824,936.99 798.824,915.99 785,895.5C 775.942,877.045 765.608,859.378 754,842.5C 746.615,833.45 739.615,824.116 733,814.5C 727.078,803.657 721.411,792.657 716,781.5C 707.159,767.817 697.826,754.484 688,741.5C 679.333,727.5 670.667,713.5 662,699.5C 655.574,685.649 648.907,671.982 642,658.5C 631.333,641.833 620.667,625.167 610,608.5C 588.309,583.119 573.475,554.119 565.5,521.5C 565.328,520.508 565.662,519.842 566.5,519.5 Z"/></g>
<g><path style="opacity:0.133" fill="#fefefe" d="M 415.5,731.5 C 415.167,732.833 414.833,734.167 414.5,735.5C 412.75,736.659 411.75,738.326 411.5,740.5C 410.662,740.842 410.328,741.508 410.5,742.5C 408.75,743.659 407.75,745.326 407.5,747.5C 405.75,748.659 404.75,750.326 404.5,752.5C 404.167,752.5 403.833,752.5 403.5,752.5C 405.709,747.079 408.209,741.745 411,736.5C 412.049,734.382 413.549,732.716 415.5,731.5 Z"/></g>
<g><path style="opacity:0.835" fill="#b18d71" d="M 410.5,742.5 C 410.25,744.674 409.25,746.341 407.5,747.5C 407.75,745.326 408.75,743.659 410.5,742.5 Z"/></g>
<g><path style="opacity:0.851" fill="#b28e73" d="M 407.5,747.5 C 407.25,749.674 406.25,751.341 404.5,752.5C 404.75,750.326 405.75,748.659 407.5,747.5 Z"/></g>
<g><path style="opacity:0.107" fill="#fefefd" d="M 403.5,752.5 C 403.5,753.167 403.5,753.833 403.5,754.5C 401.75,755.659 400.75,757.326 400.5,759.5C 398.75,760.659 397.75,762.326 397.5,764.5C 396.662,764.842 396.328,765.508 396.5,766.5C 395.272,767.306 394.272,768.306 393.5,769.5C 395.364,762.832 398.697,757.166 403.5,752.5 Z"/></g>
<g><path style="opacity:0.999" fill="#765235" d="M 564.5,521.5 C 564.833,521.5 565.167,521.5 565.5,521.5C 573.475,554.119 588.309,583.119 610,608.5C 620.667,625.167 631.333,641.833 642,658.5C 648.907,671.982 655.574,685.649 662,699.5C 670.667,713.5 679.333,727.5 688,741.5C 697.826,754.484 707.159,767.817 716,781.5C 721.411,792.657 727.078,803.657 733,814.5C 739.615,824.116 746.615,833.45 754,842.5C 765.608,859.378 775.942,877.045 785,895.5C 798.824,915.99 811.824,936.99 824,958.5C 836.827,976.153 849.161,994.153 861,1012.5C 864.839,1015.49 867.672,1019.16 869.5,1023.5C 867.167,1023.5 864.833,1023.5 862.5,1023.5C 851.195,1010.24 841.361,995.905 833,980.5C 809.133,947.44 787.8,912.774 769,876.5C 757.393,857.896 745.393,839.563 733,821.5C 724.753,804.766 715.753,788.433 706,772.5C 680.713,737.615 658.713,700.615 640,661.5C 621.394,631.897 602.394,602.564 583,573.5C 575.024,558.066 568.524,542.066 563.5,525.5C 563.833,524.167 564.167,522.833 564.5,521.5 Z"/></g>
<g><path style="opacity:0.945" fill="#b28e72" d="M 403.5,754.5 C 403.25,756.674 402.25,758.341 400.5,759.5C 400.75,757.326 401.75,755.659 403.5,754.5 Z"/></g>
<g><path style="opacity:0.937" fill="#b38f74" d="M 400.5,759.5 C 400.25,761.674 399.25,763.341 397.5,764.5C 397.75,762.326 398.75,760.659 400.5,759.5 Z"/></g>
<g><path style="opacity:0.999" fill="#6a4121" d="M 561.5,528.5 C 566.835,548.996 575.001,568.329 586,586.5C 603.25,613.331 620.25,640.331 637,667.5C 643.007,679.535 649.007,691.535 655,703.5C 672.763,732.035 690.763,760.369 709,788.5C 725.487,820.153 743.487,850.82 763,880.5C 789.841,930.214 819.675,977.881 852.5,1023.5C 850.833,1023.5 849.167,1023.5 847.5,1023.5C 824.597,990.04 802.43,956.04 781,921.5C 772.793,907.086 765.127,892.419 758,877.5C 748.501,863.84 739.501,849.84 731,835.5C 709.586,798.336 687.919,761.336 666,724.5C 653.874,707.918 643.54,690.252 635,671.5C 616.905,640.968 598.571,610.635 580,580.5C 571.714,564.82 564.881,548.487 559.5,531.5C 559.5,531.167 559.5,530.833 559.5,530.5C 559.833,529.5 560.5,528.833 561.5,528.5 Z"/></g>
<g><path style="opacity:0.117" fill="#fcfafa" d="M 393.5,769.5 C 391.576,773.017 389.909,776.684 388.5,780.5C 386.75,781.659 385.75,783.326 385.5,785.5C 384.5,785.5 383.5,785.5 382.5,785.5C 382.5,784.5 382.5,783.5 382.5,782.5C 383.397,783.598 384.23,783.598 385,782.5C 387.262,778.545 389.428,774.545 391.5,770.5C 391.957,769.702 392.624,769.369 393.5,769.5 Z"/></g>
<g><path style="opacity:0.999" fill="#7c4011" d="M 396.5,766.5 C 395.513,769.146 394.513,771.812 393.5,774.5C 396.133,782.743 399.133,790.743 402.5,798.5C 402.107,800.284 401.441,801.95 400.5,803.5C 399.167,805.167 397.833,806.833 396.5,808.5C 393.912,801.908 391.412,795.241 389,788.5C 388.503,785.854 388.336,783.187 388.5,780.5C 389.909,776.684 391.576,773.017 393.5,769.5C 394.272,768.306 395.272,767.306 396.5,766.5 Z"/></g>
<g><path style="opacity:0.999" fill="#7b3f0f" d="M 139.5,456.5 C 140.552,456.351 141.552,456.517 142.5,457C 140.671,457.273 139.171,458.107 138,459.5C 132.095,468.031 130.428,477.365 133,487.5C 134.5,491.167 136,494.833 137.5,498.5C 155.318,516.49 173.152,534.823 191,553.5C 198.11,568.22 205.61,582.72 213.5,597C 219.024,603.871 224.191,611.038 229,618.5C 233.918,630.47 240.252,641.803 248,652.5C 261.99,679.107 275.99,705.774 290,732.5C 296.83,750.977 304.83,768.977 314,786.5C 330.955,811.096 346.622,836.429 361,862.5C 366.199,879.099 371.199,895.766 376,912.5C 380.504,925.842 385.838,938.842 392,951.5C 406.652,975.843 421.485,999.843 436.5,1023.5C 435.167,1023.5 433.833,1023.5 432.5,1023.5C 417.843,1000.86 403.676,977.863 390,954.5C 383.508,941.851 377.842,928.851 373,915.5C 368.584,898.748 363.917,882.081 359,865.5C 342.342,834.842 324.675,804.842 306,775.5C 282.92,721.003 255.92,668.669 225,618.5C 210.305,598.455 197.638,577.122 187,554.5C 172.084,538.582 156.75,522.915 141,507.5C 138.667,504.167 136.333,500.833 134,497.5C 127.313,485.707 126.813,473.707 132.5,461.5C 131.3,460.708 129.967,460.708 128.5,461.5C 131.497,458.504 135.164,456.837 139.5,456.5 Z"/></g>
<g><path style="opacity:0.999" fill="#80481b" d="M 388.5,780.5 C 388.336,783.187 388.503,785.854 389,788.5C 391.412,795.241 393.912,801.908 396.5,808.5C 408.5,831.167 420.5,853.833 432.5,876.5C 431.504,876.586 430.671,876.252 430,875.5C 415.499,855.845 402.499,835.178 391,813.5C 386.652,804.958 383.819,795.958 382.5,786.5C 383.791,786.737 384.791,786.404 385.5,785.5C 385.75,783.326 386.75,781.659 388.5,780.5 Z"/></g>
<g><path style="opacity:0.999" fill="#946640" d="M 597.5,487.5 C 609.749,507.661 621.749,527.994 633.5,548.5C 632.5,548.5 631.5,548.5 630.5,548.5C 630.34,550.199 630.506,551.866 631,553.5C 635.667,562.833 640.333,572.167 645,581.5C 656.928,599.354 666.761,618.354 674.5,638.5C 681.718,651.535 689.885,663.868 699,675.5C 701.612,680.39 703.945,685.39 706,690.5C 708.6,695.268 712.1,699.268 716.5,702.5C 726.966,722.093 737.466,741.76 748,761.5C 756.026,772.026 763.86,782.693 771.5,793.5C 775.886,802.232 779.719,811.232 783,820.5C 803.03,853.377 823.863,885.044 845.5,915.5C 841.874,909.078 837.874,902.911 833.5,897C 834.167,896.333 834.833,896.333 835.5,897C 837.085,900.894 838.085,901.061 838.5,897.5C 845.436,909.764 852.77,921.764 860.5,933.5C 873.666,957.17 887.332,980.503 901.5,1003.5C 904.663,1010.5 908.329,1017.16 912.5,1023.5C 910.167,1023.5 907.833,1023.5 905.5,1023.5C 899.759,1014.36 894.259,1005.03 889,995.5C 884.333,989.5 879.667,983.5 875,977.5C 867.415,959.308 857.082,942.975 844,928.5C 834.75,914.335 825.75,900.002 817,885.5C 801.996,866.831 788.996,846.831 778,825.5C 774.614,813.459 770.281,801.793 765,790.5C 757.361,780.855 749.694,771.189 742,761.5C 737.891,753.718 734.224,745.718 731,737.5C 723.286,726.07 716.619,714.07 711,701.5C 701.427,686.842 692.261,672.008 683.5,657C 679.746,654.58 676.579,651.413 674,647.5C 664.535,623.57 653.202,600.57 640,578.5C 632.808,562.787 625.642,547.121 618.5,531.5C 612.225,521.175 606.058,510.841 600,500.5C 595.726,496.226 590.893,492.726 585.5,490C 576.265,487.616 570.265,490.949 567.5,500C 567.601,504.867 567.935,509.7 568.5,514.5C 568.5,515.167 568.5,515.833 568.5,516.5C 567.094,516.973 566.427,517.973 566.5,519.5C 565.662,519.842 565.328,520.508 565.5,521.5C 565.167,521.5 564.833,521.5 564.5,521.5C 563.015,515.426 562.015,509.259 561.5,503C 561.503,498.99 562.336,495.156 564,491.5C 572.378,479.525 582.211,478.358 593.5,488C 595.066,488.765 596.399,488.598 597.5,487.5 Z"/></g>
<g><path style="opacity:0.999" fill="#592a06" d="M 406.5,793.5 C 430.246,835.774 453.413,878.44 476,921.5C 495.99,954.478 514.157,988.478 530.5,1023.5C 526.833,1023.5 523.167,1023.5 519.5,1023.5C 519.509,1021.69 519.009,1020.02 518,1018.5C 508.827,1003.49 500.16,988.158 492,972.5C 476.767,940.367 460.767,908.7 444,877.5C 437.393,866.563 430.393,855.896 423,845.5C 416.505,833.172 409.505,821.172 402,809.5C 400.872,807.655 400.372,805.655 400.5,803.5C 401.441,801.95 402.107,800.284 402.5,798.5C 404.074,797.016 405.407,795.349 406.5,793.5 Z"/></g>
<g><path style="opacity:0.999" fill="#603411" d="M 400.5,803.5 C 400.372,805.655 400.872,807.655 402,809.5C 409.505,821.172 416.505,833.172 423,845.5C 430.393,855.896 437.393,866.563 444,877.5C 460.767,908.7 476.767,940.367 492,972.5C 500.16,988.158 508.827,1003.49 518,1018.5C 519.009,1020.02 519.509,1021.69 519.5,1023.5C 516.833,1023.5 514.167,1023.5 511.5,1023.5C 505.165,1007.83 497.998,992.494 490,977.5C 475.604,951.646 461.104,925.979 446.5,900.5C 442.197,892.218 437.53,884.218 432.5,876.5C 420.5,853.833 408.5,831.167 396.5,808.5C 397.833,806.833 399.167,805.167 400.5,803.5 Z"/></g>
<g><path style="opacity:0.999" fill="#7e4414" d="M 161.5,453.5 C 156.204,455.115 150.871,457.281 145.5,460C 140.129,464.401 136.795,470.067 135.5,477C 136.173,486.988 139.673,496.154 146,504.5C 161.029,519.195 175.696,534.195 190,549.5C 197.709,563.286 205.042,577.286 212,591.5C 251.382,648.246 284.049,708.912 310,773.5C 319.213,789.373 329.213,804.707 340,819.5C 347.585,831.668 354.918,844.001 362,856.5C 370.873,882.317 380.206,907.984 390,933.5C 406.42,964.016 423.587,994.016 441.5,1023.5C 439.833,1023.5 438.167,1023.5 436.5,1023.5C 421.485,999.843 406.652,975.843 392,951.5C 385.838,938.842 380.504,925.842 376,912.5C 371.199,895.766 366.199,879.099 361,862.5C 346.622,836.429 330.955,811.096 314,786.5C 304.83,768.977 296.83,750.977 290,732.5C 275.99,705.774 261.99,679.107 248,652.5C 240.252,641.803 233.918,630.47 229,618.5C 224.191,611.038 219.024,603.871 213.5,597C 205.61,582.72 198.11,568.22 191,553.5C 173.152,534.823 155.318,516.49 137.5,498.5C 136,494.833 134.5,491.167 133,487.5C 130.428,477.365 132.095,468.031 138,459.5C 139.171,458.107 140.671,457.273 142.5,457C 141.552,456.517 140.552,456.351 139.5,456.5C 146.474,453.898 153.807,452.898 161.5,453.5 Z"/></g>
<g><path style="opacity:0.999" fill="#8c592f" d="M 491.5,1023.5 C 481.833,1023.5 472.167,1023.5 462.5,1023.5C 450.758,1002.35 439.258,981.02 428,959.5C 423.056,951.557 417.723,943.891 412,936.5C 396.602,911.852 389.769,886.186 391.5,859.5C 392.086,859.291 392.586,858.957 393,858.5C 409.43,868.929 422.43,882.596 432,899.5C 438.791,915.873 444.791,932.54 450,949.5C 462.576,974.998 476.41,999.664 491.5,1023.5 Z"/></g>
<g><path style="opacity:0.999" fill="#816045" d="M 570.5,512.5 C 572.487,520.964 574.987,529.298 578,537.5C 586.01,560.532 598.344,580.865 615,598.5C 626.215,617.044 638.215,635.044 651,652.5C 656.82,665.469 662.487,678.469 668,691.5C 676.918,705.667 685.585,720 694,734.5C 703.176,746.336 713.009,757.503 723.5,768C 723.167,768.333 722.833,768.667 722.5,769C 730.339,778.84 736.506,789.674 741,801.5C 745.519,805.022 749.685,808.855 753.5,813C 755.78,813.233 757.78,814.066 759.5,815.5C 760.362,814.234 761.029,812.901 761.5,811.5C 762.728,812.306 763.728,813.306 764.5,814.5C 804.901,884.299 845.567,953.965 886.5,1023.5C 885.833,1023.5 885.167,1023.5 884.5,1023.5C 883.223,1021.05 881.723,1018.72 880,1016.5C 879,1017.83 878,1017.83 877,1016.5C 874.507,1010.84 871.507,1005.51 868,1000.5C 866.89,998.963 865.39,998.297 863.5,998.5C 862.72,994.873 861.22,991.54 859,988.5C 856.333,985.167 853.667,981.833 851,978.5C 846.191,966.875 839.858,956.208 832,946.5C 825.763,933.022 818.763,920.022 811,907.5C 811,908.833 811,910.167 811,911.5C 810.075,910.953 809.242,910.287 808.5,909.5C 806.879,905.756 804.879,902.256 802.5,899C 803.328,898.085 804.328,897.419 805.5,897C 795.208,880.25 785.041,863.416 775,846.5C 770.454,841.623 766.287,836.456 762.5,831C 759.588,829.627 756.754,828.127 754,826.5C 744.891,815.39 736.557,803.723 729,791.5C 724.811,779.772 718.145,769.772 709,761.5C 692.856,738.998 677.856,715.665 664,691.5C 657.121,671.65 647.287,653.484 634.5,637C 627.1,624.259 619.267,611.759 611,599.5C 589.991,575.486 575.825,547.819 568.5,516.5C 568.5,515.833 568.5,515.167 568.5,514.5C 569.167,513.833 569.833,513.167 570.5,512.5 Z"/></g>
<g><path style="opacity:0.999" fill="#976a46" d="M 905.5,1023.5 C 899.167,1023.5 892.833,1023.5 886.5,1023.5C 845.567,953.965 804.901,884.299 764.5,814.5C 763.792,811.206 763.792,808.04 764.5,805C 762.625,801.386 761.125,797.553 760,793.5C 755.826,788.359 752.159,783.026 749,777.5C 747.989,776.663 746.822,776.33 745.5,776.5C 744.051,772.528 741.551,769.194 738,766.5C 733.37,752.733 727.704,739.066 721,725.5C 712.667,710.833 704.333,696.167 696,681.5C 689.147,670.31 681.147,659.976 672,650.5C 666.58,636.494 660.747,622.66 654.5,609C 649.303,599.815 644.136,590.648 639,581.5C 629.63,559.094 618.963,537.427 607,516.5C 602.28,507.447 595.78,499.947 587.5,494C 583.471,492.087 579.471,492.087 575.5,494C 570.187,499.464 568.52,505.297 570.5,511.5C 570.5,511.833 570.5,512.167 570.5,512.5C 569.833,513.167 569.167,513.833 568.5,514.5C 567.935,509.7 567.601,504.867 567.5,500C 570.265,490.949 576.265,487.616 585.5,490C 590.893,492.726 595.726,496.226 600,500.5C 606.058,510.841 612.225,521.175 618.5,531.5C 625.642,547.121 632.808,562.787 640,578.5C 653.202,600.57 664.535,623.57 674,647.5C 676.579,651.413 679.746,654.58 683.5,657C 692.261,672.008 701.427,686.842 711,701.5C 716.619,714.07 723.286,726.07 731,737.5C 734.224,745.718 737.891,753.718 742,761.5C 749.694,771.189 757.361,780.855 765,790.5C 770.281,801.793 774.614,813.459 778,825.5C 788.996,846.831 801.996,866.831 817,885.5C 825.75,900.002 834.75,914.335 844,928.5C 857.082,942.975 867.415,959.308 875,977.5C 879.667,983.5 884.333,989.5 889,995.5C 894.259,1005.03 899.759,1014.36 905.5,1023.5 Z"/></g>
<g><path style="opacity:0.999" fill="#80481a" d="M 446.5,900.5 C 461.104,925.979 475.604,951.646 490,977.5C 497.998,992.494 505.165,1007.83 511.5,1023.5C 510.167,1023.5 508.833,1023.5 507.5,1023.5C 491.058,996.289 475.891,968.289 462,939.5C 455.932,926.784 450.766,913.784 446.5,900.5 Z"/></g>
<g><path style="opacity:0.129" fill="#fbfaf9" d="M 860.5,933.5 C 862.433,934.642 863.933,936.308 865,938.5C 875.692,956.56 886.358,974.56 897,992.5C 898.781,996.093 900.281,999.76 901.5,1003.5C 887.332,980.503 873.666,957.17 860.5,933.5 Z"/></g>
<g><path style="opacity:0.101" fill="#f5f1ed" d="M 901.5,1003.5 C 904.148,1006.54 906.648,1009.87 909,1013.5C 911.22,1016.54 912.72,1019.87 913.5,1023.5C 913.167,1023.5 912.833,1023.5 912.5,1023.5C 908.329,1017.16 904.663,1010.5 901.5,1003.5 Z"/></g>
</svg>
